<?xml version="1.0" encoding="UTF-8"?>
<svg width="1440" height="900" viewBox="0 0 1440 900" fill="none" xmlns="http://www.w3.org/2000/svg">
  <rect width="1440" height="900" fill="#FFEEF5"/>
  <path d="M0 0L1440 0L1440 900L0 900L0 0Z" fill="url(#paint0_linear)"/>
  <g opacity="0.4">
    <path d="M1276.33 216.404C1364.55 216.404 1436.33 144.628 1436.33 56.4043C1436.33 -31.8197 1364.55 -103.596 1276.33 -103.596C1188.1 -103.596 1116.33 -31.8197 1116.33 56.4043C1116.33 144.628 1188.1 216.404 1276.33 216.404Z" fill="#FF6B9A" fill-opacity="0.2"/>
    <path d="M1276.33 216.404C1364.55 216.404 1436.33 144.628 1436.33 56.4043C1436.33 -31.8197 1364.55 -103.596 1276.33 -103.596C1188.1 -103.596 1116.33 -31.8197 1116.33 56.4043C1116.33 144.628 1188.1 216.404 1276.33 216.404Z" fill="#FF6B9A" fill-opacity="0.2"/>
  </g>
  <g opacity="0.4">
    <path d="M163.665 216.404C251.889 216.404 323.665 144.628 323.665 56.4043C323.665 -31.8197 251.889 -103.596 163.665 -103.596C75.4407 -103.596 3.66504 -31.8197 3.66504 56.4043C3.66504 144.628 75.4407 216.404 163.665 216.404Z" fill="#FF6B9A" fill-opacity="0.2"/>
    <path d="M163.665 216.404C251.889 216.404 323.665 144.628 323.665 56.4043C323.665 -31.8197 251.889 -103.596 163.665 -103.596C75.4407 -103.596 3.66504 -31.8197 3.66504 56.4043C3.66504 144.628 75.4407 216.404 163.665 216.404Z" fill="#FF6B9A" fill-opacity="0.2"/>
  </g>
  <g opacity="0.4">
    <path d="M163.665 1003.6C251.889 1003.6 323.665 931.824 323.665 843.6C323.665 755.376 251.889 683.6 163.665 683.6C75.4407 683.6 3.66504 755.376 3.66504 843.6C3.66504 931.824 75.4407 1003.6 163.665 1003.6Z" fill="#FF6B9A" fill-opacity="0.2"/>
    <path d="M163.665 1003.6C251.889 1003.6 323.665 931.824 323.665 843.6C323.665 755.376 251.889 683.6 163.665 683.6C75.4407 683.6 3.66504 755.376 3.66504 843.6C3.66504 931.824 75.4407 1003.6 163.665 1003.6Z" fill="#FF6B9A" fill-opacity="0.2"/>
  </g>
  <g opacity="0.4">
    <path d="M1276.33 1003.6C1364.55 1003.6 1436.33 931.824 1436.33 843.6C1436.33 755.376 1364.55 683.6 1276.33 683.6C1188.1 683.6 1116.33 755.376 1116.33 843.6C1116.33 931.824 1188.1 1003.6 1276.33 1003.6Z" fill="#FF6B9A" fill-opacity="0.2"/>
    <path d="M1276.33 1003.6C1364.55 1003.6 1436.33 931.824 1436.33 843.6C1436.33 755.376 1364.55 683.6 1276.33 683.6C1188.1 683.6 1116.33 755.376 1116.33 843.6C1116.33 931.824 1188.1 1003.6 1276.33 1003.6Z" fill="#FF6B9A" fill-opacity="0.2"/>
  </g>
  <path opacity="0.4" d="M720 610C831.046 610 921 520.046 921 409C921 297.954 831.046 208 720 208C608.954 208 519 297.954 519 409C519 520.046 608.954 610 720 610Z" fill="#FF6B9A" fill-opacity="0.2"/>
  <path opacity="0.4" d="M720 610C831.046 610 921 520.046 921 409C921 297.954 831.046 208 720 208C608.954 208 519 297.954 519 409C519 520.046 608.954 610 720 610Z" fill="#FF6B9A" fill-opacity="0.2"/>
  <path opacity="0.1" d="M720 692C876.355 692 1003 565.355 1003 409C1003 252.645 876.355 126 720 126C563.645 126 437 252.645 437 409C437 565.355 563.645 692 720 692Z" fill="#FF6B9A"/>
  <path opacity="0.05" d="M720 774C921.665 774 1085 610.665 1085 409C1085 207.335 921.665 44 720 44C518.335 44 355 207.335 355 409C355 610.665 518.335 774 720 774Z" fill="#FF6B9A"/>
  <defs>
    <linearGradient id="paint0_linear" x1="720" y1="0" x2="720" y2="900" gradientUnits="userSpaceOnUse">
      <stop stop-color="#FFEEF5"/>
      <stop offset="1" stop-color="#FFF5F9"/>
    </linearGradient>
  </defs>
</svg>
